<?xml version="1.0" encoding="UTF-8"?><svg id="Layer_1" xmlns="http://www.w3.org/2000/svg" viewBox="0 0 120 120"><defs><style>.cls-1{fill:#f5e63d;}.cls-2{fill:#e64c4c;}.cls-3{fill:#cf4545;}.cls-4{fill:#ddd251;}</style></defs><g><path class="cls-2" d="M29.29,70.37c-11.35,0-20.58-9.23-20.58-20.58s9.23-20.58,20.58-20.58,20.58,9.23,20.58,20.58-9.23,20.58-20.58,20.58Z"/><path class="cls-3" d="M29.29,33.21c9.14,0,16.58,7.44,16.58,16.58s-7.44,16.58-16.58,16.58-16.58-7.44-16.58-16.58,7.44-16.58,16.58-16.58m0-8c-13.58,0-24.58,11.01-24.58,24.58s11.01,24.58,24.58,24.58,24.58-11.01,24.58-24.58-11.01-24.58-24.58-24.58h0Z"/></g><g><path class="cls-1" d="M89.71,115.42c-11.35,0-20.58-9.23-20.58-20.58s9.23-20.58,20.58-20.58,20.58,9.23,20.58,20.58-9.23,20.58-20.58,20.58Z"/><path class="cls-4" d="M89.71,78.26c9.14,0,16.58,7.44,16.58,16.58s-7.44,16.58-16.58,16.58-16.58-7.44-16.58-16.58,7.44-16.58,16.58-16.58m0-8c-13.58,0-24.58,11.01-24.58,24.58s11.01,24.58,24.58,24.58,24.58-11.01,24.58-24.58-11.01-24.58-24.58-24.58h0Z"/></g><g><path class="cls-1" d="M78.45,45.79c-11.35,0-20.58-9.23-20.58-20.58s9.23-20.58,20.58-20.58,20.58,9.23,20.58,20.58-9.23,20.58-20.58,20.58Z"/><path class="cls-4" d="M78.45,8.63c9.14,0,16.58,7.44,16.58,16.58s-7.44,16.58-16.58,16.58-16.58-7.44-16.58-16.58,7.44-16.58,16.58-16.58m0-8c-13.58,0-24.58,11.01-24.58,24.58s11.01,24.58,24.58,24.58,24.58-11.01,24.58-24.58S92.03,.63,78.45,.63h0Z"/></g></svg>