<?xml version="1.0" encoding="UTF-8"?><svg id="Layer_1" xmlns="http://www.w3.org/2000/svg" viewBox="0 0 120 120"><defs><style>.cls-1{fill:#f5e63d;}.cls-2{fill:#e64c4c;}.cls-3{fill:#cf4545;}.cls-4{fill:#ddd251;}</style></defs><g><path class="cls-2" d="M35.42,115.39c-11.35,0-20.58-9.23-20.58-20.58s9.23-20.58,20.58-20.58,20.58,9.23,20.58,20.58-9.23,20.58-20.58,20.58Z"/><path class="cls-3" d="M35.42,78.23c9.14,0,16.58,7.44,16.58,16.58s-7.44,16.58-16.58,16.58-16.58-7.44-16.58-16.58,7.44-16.58,16.58-16.58m0-8c-13.58,0-24.58,11.01-24.58,24.58s11.01,24.58,24.58,24.58,24.58-11.01,24.58-24.58-11.01-24.58-24.58-24.58h0Z"/></g><g><path class="cls-2" d="M87.18,88.28c-11.35,0-20.58-9.23-20.58-20.58s9.23-20.58,20.58-20.58,20.58,9.23,20.58,20.58-9.23,20.58-20.58,20.58Z"/><path class="cls-3" d="M87.18,51.12c9.14,0,16.58,7.44,16.58,16.58s-7.44,16.58-16.58,16.58-16.58-7.44-16.58-16.58,7.44-16.58,16.58-16.58m0-8c-13.58,0-24.58,11.01-24.58,24.58s11.01,24.58,24.58,24.58,24.58-11.01,24.58-24.58-11.01-24.58-24.58-24.58h0Z"/></g><g><path class="cls-1" d="M54.94,45.77c-11.35,0-20.58-9.23-20.58-20.58S43.59,4.61,54.94,4.61s20.58,9.23,20.58,20.58-9.23,20.58-20.58,20.58Z"/><path class="cls-4" d="M54.94,8.61c9.14,0,16.58,7.44,16.58,16.58s-7.44,16.58-16.58,16.58-16.58-7.44-16.58-16.58,7.44-16.58,16.58-16.58m0-8c-13.58,0-24.58,11.01-24.58,24.58s11.01,24.58,24.58,24.58,24.58-11.01,24.58-24.58S68.51,.61,54.94,.61h0Z"/></g></svg>